<svg id="svg" version="1.1" xmlns="http://www.w3.org/2000/svg" xmlns:xlink="http://www.w3.org/1999/xlink" width="400" height="82.49090173877882" viewBox="0, 0, 400,82.49090173877882"><g id="svgg"><path id="path0" d="M35.963 3.255 C 30.238 4.036,24.703 6.163,19.738 9.490 C 16.841 11.431,16.435 11.833,17.375 11.833 C 19.446 11.833,24.160 13.255,26.055 14.452 L 26.694 14.854 28.363 13.093 C 36.636 4.363,47.145 4.706,55.005 13.961 L 55.750 14.838 57.042 14.159 C 59.169 13.041,63.343 11.833,65.081 11.833 C 66.069 11.833,65.699 11.459,62.750 9.478 C 54.977 4.258,45.225 1.992,35.963 3.255 M11.285 17.232 C 5.732 24.059,3.091 31.772,3.091 41.167 C 3.091 50.025,4.888 55.852,9.895 63.230 L 10.899 64.709 11.192 62.646 C 11.555 60.090,12.206 57.099,12.741 55.526 C 12.964 54.870,13.095 54.335,13.032 54.337 C 12.968 54.339,12.617 54.411,12.250 54.496 C 9.575 55.116,7.446 51.918,6.569 45.961 C 5.701 40.065,8.087 32.601,12.617 27.036 L 13.199 26.321 12.939 24.869 C 12.627 23.123,12.179 19.034,12.123 17.417 L 12.083 16.251 11.285 17.232 M70.439 17.167 C 70.387 17.579,70.298 18.592,70.241 19.417 C 70.127 21.087,69.771 23.944,69.508 25.309 C 69.317 26.294,69.290 26.214,70.262 27.500 C 75.255 34.108,77.171 41.548,75.564 48.083 C 74.326 53.112,72.660 55.008,69.969 54.450 L 69.355 54.322 69.680 55.247 C 70.389 57.266,71.183 60.958,71.434 63.405 C 71.496 64.007,71.597 64.500,71.658 64.500 C 72.089 64.500,75.506 58.647,76.655 55.942 C 81.996 43.366,79.662 27.012,71.108 17.083 L 70.533 16.417 70.439 17.167 " stroke="none" fill="#0035af" fill-rule="evenodd"></path><path id="path1" d="M40.049 2.957 C 40.764 2.989,41.889 2.988,42.549 2.957 C 43.210 2.925,42.625 2.900,41.250 2.900 C 39.875 2.900,39.335 2.926,40.049 2.957 M38.583 9.069 C 34.871 9.926,31.436 12.343,28.230 16.355 L 27.214 17.627 25.903 16.783 C 21.609 14.015,15.534 12.986,14.439 14.840 C 13.906 15.743,14.309 21.643,15.168 25.500 L 15.484 26.917 14.935 27.500 C 9.186 33.607,6.987 43.073,9.702 50.024 C 10.803 52.843,11.162 52.941,14.825 51.426 C 17.426 50.351,17.337 50.339,16.668 51.664 C 14.960 55.047,14.046 57.771,13.489 61.137 C 13.066 63.699,12.815 66.820,13.004 67.174 C 13.388 67.892,17.676 71.610,19.679 72.961 L 20.441 73.475 21.846 72.470 C 24.844 70.323,26.603 69.427,31.281 67.663 L 33.811 66.709 35.433 67.091 C 39.239 67.989,43.259 67.989,47.059 67.093 L 48.700 66.706 51.105 67.605 C 55.742 69.339,57.618 70.287,60.582 72.389 C 61.315 72.908,61.990 73.332,62.082 73.331 C 62.624 73.325,67.893 68.975,69.081 67.554 L 69.700 66.814 69.585 65.449 C 69.125 59.998,68.120 56.212,66.032 52.061 C 65.166 50.343,65.078 50.367,67.966 51.517 C 70.862 52.671,71.124 52.699,71.798 51.931 C 73.379 50.131,74.391 45.181,73.932 41.500 C 73.287 36.323,71.303 31.842,67.856 27.775 C 67.134 26.922,67.048 26.743,67.175 26.358 C 68.016 23.817,68.663 15.910,68.114 14.878 C 67.059 12.894,60.209 14.163,56.122 17.100 L 55.299 17.691 55.034 17.314 C 50.637 11.036,44.150 7.785,38.583 9.069 M29.164 31.749 C 31.235 32.480,33.090 34.771,34.740 38.640 C 35.448 40.299,35.437 40.198,34.894 39.991 C 33.312 39.390,32.046 43.158,32.496 47.130 C 32.991 51.499,35.175 52.722,36.241 49.227 C 36.598 48.057,36.777 44.274,36.527 43.188 C 36.332 42.340,36.361 42.365,37.398 43.951 C 39.917 47.806,42.652 47.782,45.163 43.883 L 45.936 42.683 45.865 45.052 C 45.743 49.117,46.873 51.957,48.296 51.159 C 50.917 49.688,50.513 39.887,47.834 39.963 C 47.207 39.981,47.207 39.971,47.938 38.300 C 52.892 26.963,62.559 30.529,61.480 43.295 C 61.041 48.483,58.069 54.286,55.499 54.972 C 51.395 56.067,51.462 56.055,49.250 56.062 C 47.189 56.069,47.002 56.041,45.417 55.483 L 43.750 54.896 43.660 54.240 C 43.227 51.078,38.844 51.272,38.832 54.453 C 38.829 55.250,35.932 56.088,33.250 56.069 C 27.061 56.024,24.147 53.996,22.159 48.352 C 18.862 38.993,22.857 29.524,29.164 31.749 M2.896 41.167 C 2.896 42.221,2.923 42.652,2.956 42.125 C 2.990 41.598,2.990 40.735,2.956 40.208 C 2.923 39.681,2.896 40.112,2.896 41.167 M79.563 41.167 C 79.563 42.221,79.590 42.652,79.623 42.125 C 79.656 41.598,79.656 40.735,79.623 40.208 C 79.590 39.681,79.563 40.112,79.563 41.167 M6.390 43.583 C 6.391 44.317,6.420 44.596,6.456 44.204 C 6.491 43.812,6.490 43.212,6.454 42.871 C 6.419 42.529,6.390 42.850,6.390 43.583 " stroke="none" fill="#0077e2" fill-rule="evenodd"></path><path id="path2" d="M31.500 69.751 C 28.534 70.861,25.514 72.367,23.772 73.605 L 22.460 74.538 23.272 74.978 C 26.084 76.505,30.791 78.229,33.458 78.709 L 34.833 78.956 34.833 73.998 L 34.833 69.039 34.458 68.938 C 33.961 68.805,34.221 68.733,31.500 69.751 " stroke="none" fill="#00af45" fill-rule="evenodd"></path><path id="path3" d="M35.833 0.937 C 31.568 1.511,25.993 3.317,22.333 5.309 C 22.196 5.384,21.646 5.664,21.113 5.931 C 18.935 7.020,13.837 10.945,12.125 12.850 C 6.601 18.997,3.801 23.988,1.847 31.167 C -1.315 42.788,2.172 58.617,9.667 66.667 C 10.137 67.171,10.809 67.958,11.161 68.417 C 12.021 69.537,13.809 71.243,15.333 72.397 C 16.021 72.918,16.943 73.639,17.383 74.000 C 21.416 77.310,29.631 80.571,36.050 81.410 C 45.907 82.698,58.399 79.513,65.117 74.000 C 65.557 73.639,66.479 72.918,67.167 72.397 C 68.691 71.243,70.479 69.537,71.339 68.417 C 71.691 67.958,72.363 67.171,72.833 66.667 C 75.274 64.045,78.607 57.832,80.075 53.167 C 84.094 40.399,81.131 25.330,72.661 15.463 C 70.095 12.474,69.399 11.770,67.446 10.184 C 58.257 2.721,47.007 -0.569,35.833 0.937 M46.283 3.091 C 52.685 3.930,58.990 6.495,64.231 10.394 C 66.083 11.771,66.087 11.778,65.042 11.921 C 62.109 12.323,58.644 13.357,56.762 14.391 L 55.731 14.958 54.824 13.888 C 47.048 4.708,36.568 4.534,28.167 13.444 L 26.750 14.946 25.583 14.306 C 23.809 13.333,20.405 12.334,17.458 11.923 C 16.413 11.778,16.417 11.771,18.269 10.394 C 26.232 4.471,36.462 1.804,46.283 3.091 M45.417 9.502 C 48.705 10.675,51.611 12.919,54.316 16.375 C 55.360 17.708,55.207 17.682,56.620 16.772 C 60.513 14.264,66.429 13.005,67.748 14.403 C 68.687 15.399,68.535 20.012,67.381 25.535 L 67.113 26.819 67.559 27.368 C 73.668 34.887,75.583 42.717,73.002 49.616 C 71.783 52.873,71.449 52.987,67.687 51.431 C 65.121 50.370,65.179 50.294,66.493 53.022 C 68.331 56.840,69.667 62.427,69.667 66.302 C 69.667 67.274,67.575 69.393,63.941 72.103 C 62.073 73.496,62.022 73.510,61.191 72.855 C 58.873 71.028,55.780 69.403,51.622 67.828 L 48.662 66.706 47.456 67.027 C 43.882 67.978,39.173 68.004,35.404 67.093 L 33.841 66.715 31.212 67.699 C 26.890 69.317,24.013 70.845,20.664 73.301 C 20.278 73.584,17.228 71.327,14.581 68.800 L 12.791 67.091 12.903 65.587 C 13.279 60.516,14.205 56.828,16.104 52.849 C 16.690 51.620,17.148 50.592,17.122 50.566 C 17.095 50.540,15.988 50.961,14.662 51.503 C 11.446 52.817,10.963 52.772,10.123 51.083 C 6.782 44.371,8.541 35.101,14.507 27.978 L 15.456 26.845 15.154 25.548 C 14.336 22.036,13.903 15.826,14.408 14.850 C 15.433 12.867,21.853 14.022,26.229 16.975 L 27.208 17.636 28.218 16.360 C 33.318 9.917,39.580 7.420,45.417 9.502 M12.510 20.644 C 12.695 22.328,12.956 24.278,13.090 24.978 C 13.323 26.190,13.319 26.270,13.007 26.667 C 6.809 34.561,5.020 42.819,7.837 50.537 C 8.964 53.625,10.371 54.804,12.359 54.327 C 13.422 54.072,13.401 53.987,12.753 55.919 C 12.193 57.593,11.530 60.651,11.131 63.397 L 10.917 64.878 9.980 63.564 C 0.023 49.589,0.487 30.484,11.104 17.321 L 12.083 16.106 12.129 16.845 C 12.154 17.251,12.326 18.961,12.510 20.644 M71.503 17.452 C 81.982 30.528,82.437 49.553,72.603 63.456 C 71.541 64.957,71.574 64.964,71.338 63.208 C 70.912 60.044,70.320 57.398,69.586 55.374 C 69.107 54.054,69.095 54.076,70.138 54.326 C 72.317 54.849,73.714 53.513,74.987 49.689 C 77.419 42.382,75.457 34.169,69.484 26.651 C 69.186 26.276,69.163 26.132,69.313 25.567 C 69.566 24.618,70.133 20.195,70.267 18.122 C 70.403 16.009,70.364 16.031,71.503 17.452 M25.502 31.869 C 20.766 33.687,19.481 43.274,23.020 50.390 C 24.521 53.407,25.727 54.534,28.239 55.264 C 31.957 56.346,34.405 56.392,37.174 55.432 L 38.750 54.886 38.842 54.234 C 39.273 51.202,43.209 51.115,43.642 54.128 L 43.750 54.884 45.140 55.363 C 49.023 56.701,54.994 55.975,57.036 53.917 C 62.175 48.736,63.131 37.033,58.744 33.023 C 55.267 29.846,51.306 31.480,48.479 37.259 C 47.195 39.883,47.148 40.053,47.749 39.902 C 50.218 39.282,51.002 48.926,48.644 50.910 C 47.050 52.251,45.917 50.021,45.917 45.542 C 45.917 44.052,45.908 42.833,45.898 42.833 C 45.888 42.833,45.574 43.306,45.200 43.884 C 42.671 47.795,39.913 47.798,37.350 43.893 L 36.555 42.683 36.632 44.807 C 36.783 48.997,35.715 51.808,34.209 51.184 C 31.449 50.041,32.063 39.308,34.853 39.921 L 35.328 40.025 34.506 38.180 C 32.049 32.667,28.997 30.527,25.502 31.869 M34.736 68.934 C 34.969 69.024,35.000 69.628,35.000 74.018 L 35.000 79.000 34.625 79.000 C 32.543 78.999,22.783 75.410,22.537 74.555 C 22.382 74.014,28.263 70.780,31.417 69.673 C 32.242 69.383,33.067 69.081,33.250 69.001 C 33.649 68.827,34.372 68.795,34.736 68.934 M50.687 69.505 C 53.898 70.643,59.174 73.421,59.989 74.403 C 60.554 75.084,50.237 78.998,47.875 79.000 L 47.500 79.000 47.500 74.028 C 47.500 71.293,47.550 69.006,47.611 68.944 C 47.870 68.686,48.908 68.875,50.687 69.505 " stroke="none" fill="#ffffff" fill-rule="evenodd"></path><path id="path4" d="M47.958 68.948 C 47.689 69.019,47.667 69.402,47.667 74.008 L 47.667 78.992 48.208 78.896 C 50.188 78.545,53.098 77.696,55.208 76.853 C 56.717 76.250,60.001 74.643,59.997 74.509 C 59.994 74.384,57.354 72.674,55.917 71.866 C 54.491 71.064,48.737 68.774,48.346 68.853 C 48.293 68.863,48.119 68.906,47.958 68.948 " stroke="none" fill="#e00a00" fill-rule="evenodd"></path><path id="path5" d="M100.676 2.854 C 94.324 3.590,92.405 5.988,92.426 13.167 C 92.447 20.417,93.832 21.916,102.271 23.822 C 107.326 24.964,107.837 25.368,107.830 28.233 C 107.822 31.341,107.241 31.750,102.833 31.750 C 99.865 31.750,97.499 31.451,94.691 30.719 C 93.833 30.496,93.104 30.341,93.070 30.375 C 92.913 30.531,91.696 36.429,91.799 36.529 C 92.799 37.493,98.176 38.654,102.256 38.785 C 112.674 39.121,115.889 36.560,115.899 27.917 C 115.906 20.699,114.868 19.604,105.773 17.241 C 100.659 15.912,100.506 15.793,100.502 13.117 C 100.500 11.247,100.707 10.669,101.544 10.211 C 102.526 9.675,108.926 9.843,113.311 10.519 C 113.895 10.610,114.397 10.658,114.427 10.628 C 114.501 10.554,114.956 6.553,115.061 5.053 L 115.145 3.856 114.281 3.669 C 110.328 2.814,104.196 2.446,100.676 2.854 M129.766 2.856 C 124.266 3.562,120.464 6.556,119.425 11.000 C 118.981 12.898,119.051 29.170,119.510 30.837 C 120.989 36.206,125.336 38.767,132.917 38.736 C 140.169 38.707,144.365 36.244,146.099 31.000 C 146.545 29.652,146.668 13.519,146.248 11.432 C 144.990 5.169,138.413 1.747,129.766 2.856 M208.042 2.832 C 202.804 3.575,199.551 6.111,198.373 10.368 C 197.930 11.970,197.934 29.534,198.378 31.167 C 199.727 36.130,203.555 38.568,210.342 38.786 C 214.369 38.915,221.167 38.133,221.167 37.541 C 221.167 37.030,220.131 30.909,220.025 30.798 C 219.963 30.733,219.216 30.784,218.364 30.912 C 213.536 31.638,208.621 31.438,207.575 30.475 C 206.338 29.334,206.333 29.298,206.333 20.877 C 206.333 11.999,206.420 11.525,208.223 10.538 C 208.953 10.139,215.189 10.168,218.064 10.584 C 219.141 10.740,220.043 10.841,220.068 10.809 C 220.192 10.654,221.205 3.982,221.118 3.896 C 220.977 3.755,219.038 3.359,217.083 3.073 C 215.062 2.776,209.480 2.628,208.042 2.832 M295.326 2.837 C 290.171 3.563,286.555 6.423,285.584 10.541 C 285.222 12.076,285.222 29.424,285.584 30.959 C 287.308 38.271,296.682 40.798,309.460 37.394 L 310.503 37.116 310.460 28.850 L 310.417 20.583 306.583 20.583 L 302.750 20.583 302.706 25.860 L 302.662 31.136 301.873 31.229 C 296.602 31.850,294.490 31.177,293.758 28.643 C 293.326 27.147,293.443 13.181,293.894 12.333 C 294.296 11.579,294.954 10.875,295.583 10.527 C 296.270 10.147,303.137 10.185,306.248 10.586 C 307.417 10.737,308.428 10.798,308.495 10.722 C 308.768 10.413,309.547 3.965,309.328 3.830 C 309.104 3.691,307.722 3.463,304.750 3.075 C 302.459 2.776,296.780 2.633,295.326 2.837 M355.750 2.896 C 350.540 3.759,347.578 6.163,346.382 10.500 C 345.989 11.925,345.925 29.035,346.305 30.750 C 347.853 37.716,354.860 40.215,367.042 38.146 C 369.081 37.800,369.167 37.769,369.167 37.381 C 369.167 36.997,368.168 30.796,368.092 30.709 C 368.072 30.686,367.275 30.787,366.320 30.933 C 365.146 31.112,363.279 31.206,360.558 31.224 L 356.533 31.250 355.892 30.735 C 355.539 30.452,355.063 29.889,354.833 29.485 L 354.417 28.750 354.367 21.195 C 354.307 12.075,354.401 11.536,356.228 10.536 C 356.943 10.144,363.152 10.169,366.061 10.574 C 367.149 10.726,368.061 10.828,368.088 10.800 C 368.218 10.668,369.201 4.163,369.122 3.957 C 369.031 3.721,368.253 3.552,365.000 3.066 C 362.691 2.720,357.396 2.623,355.750 2.896 M37.960 2.951 C 38.168 2.991,38.468 2.990,38.627 2.948 C 38.786 2.906,38.617 2.874,38.250 2.875 C 37.883 2.877,37.753 2.911,37.960 2.951 M43.960 2.951 C 44.168 2.991,44.468 2.990,44.627 2.948 C 44.786 2.906,44.617 2.874,44.250 2.875 C 43.883 2.877,43.753 2.911,43.960 2.951 M150.833 20.750 L 150.833 38.333 154.750 38.333 L 158.667 38.333 158.677 27.125 C 158.687 16.950,158.711 15.970,158.941 16.500 C 159.307 17.343,160.649 20.058,162.773 24.252 C 163.794 26.267,165.796 30.242,167.223 33.083 L 169.817 38.250 174.825 38.294 L 179.833 38.338 179.833 20.752 L 179.833 3.167 175.917 3.167 L 172.000 3.167 171.991 14.875 L 171.983 26.583 170.917 24.500 C 170.330 23.354,169.847 22.325,169.842 22.214 C 169.837 22.102,168.698 19.702,167.310 16.880 C 165.923 14.059,164.577 11.262,164.320 10.667 C 164.064 10.071,163.155 8.142,162.302 6.380 L 160.750 3.176 155.792 3.172 L 150.833 3.167 150.833 20.750 M185.333 20.750 L 185.333 38.333 189.333 38.333 L 193.333 38.333 193.333 20.750 L 193.333 3.167 189.333 3.167 L 185.333 3.167 185.333 20.750 M234.667 20.750 L 234.667 38.333 245.667 38.333 L 256.667 38.333 256.667 34.750 L 256.667 31.167 249.667 31.167 L 242.667 31.167 242.667 17.167 L 242.667 3.167 238.667 3.167 L 234.667 3.167 234.667 20.750 M259.333 20.750 L 259.333 38.333 270.500 38.333 L 281.667 38.333 281.667 34.750 L 281.667 31.167 274.667 31.167 L 267.667 31.167 267.667 27.500 L 267.667 23.833 274.083 23.833 L 280.500 23.833 280.500 20.167 L 280.500 16.500 274.083 16.500 L 267.667 16.500 267.667 13.417 L 267.667 10.333 274.667 10.333 L 281.667 10.333 281.667 6.750 L 281.667 3.167 270.500 3.167 L 259.333 3.167 259.333 20.750 M322.533 5.289 C 322.165 6.459,321.324 9.142,320.665 11.250 C 320.007 13.358,319.175 16.012,318.817 17.146 C 318.459 18.281,318.167 19.310,318.167 19.433 C 318.167 19.556,316.936 23.615,315.432 28.453 C 313.928 33.292,312.655 37.494,312.603 37.792 L 312.508 38.333 316.724 38.333 L 320.940 38.333 321.915 34.917 L 322.890 31.500 328.585 31.500 L 334.281 31.500 334.474 32.144 C 334.580 32.499,334.667 32.892,334.666 33.019 C 334.666 33.146,334.984 34.394,335.372 35.792 L 336.078 38.333 340.372 38.333 C 342.734 38.333,344.667 38.306,344.667 38.272 C 344.667 38.205,343.071 33.106,341.583 28.417 C 340.608 25.344,339.984 23.269,339.328 20.917 C 339.123 20.183,338.634 18.571,338.241 17.333 C 336.952 13.274,334.210 4.429,334.056 3.833 L 333.904 3.250 328.554 3.206 L 323.203 3.162 322.533 5.289 M369.547 3.539 C 369.594 3.747,370.288 5.342,371.088 7.083 C 371.889 8.825,372.682 10.636,372.851 11.108 C 373.228 12.159,373.855 13.582,377.567 21.821 C 378.080 22.960,378.500 23.951,378.500 24.024 C 378.500 24.097,378.912 25.089,379.417 26.228 L 380.333 28.299 380.333 33.316 L 380.333 38.333 384.417 38.333 L 388.500 38.333 388.500 33.369 C 388.500 27.575,388.301 28.472,390.835 22.833 C 391.762 20.771,392.972 18.033,393.525 16.750 C 394.078 15.467,394.934 13.479,395.427 12.333 C 395.920 11.188,396.972 8.825,397.763 7.083 C 398.555 5.342,399.241 3.747,399.288 3.539 L 399.373 3.161 395.072 3.205 L 390.771 3.250 390.146 4.833 C 389.803 5.704,389.152 7.354,388.701 8.500 C 387.274 12.119,384.442 18.833,384.343 18.833 C 384.291 18.833,384.074 18.365,383.860 17.792 C 383.009 15.507,382.362 13.902,380.619 9.750 C 379.618 7.367,378.623 4.929,378.407 4.333 L 378.015 3.250 373.738 3.205 L 369.460 3.161 369.547 3.539 M134.959 10.231 C 136.455 10.516,137.223 11.063,137.766 12.230 L 138.163 13.083 138.165 20.729 L 138.167 28.375 137.727 29.355 C 136.352 32.420,129.263 32.336,127.667 29.237 L 127.250 28.426 127.250 20.750 L 127.250 13.074 127.676 12.247 C 128.657 10.341,131.463 9.564,134.959 10.231 M328.928 12.292 C 329.196 13.492,330.412 18.042,331.721 22.750 L 332.277 24.750 328.531 24.795 C 326.470 24.820,324.754 24.810,324.717 24.773 C 324.662 24.717,325.384 22.099,328.276 11.875 C 328.591 10.762,328.584 10.758,328.928 12.292 M28.913 12.542 L 27.583 13.917 28.958 12.587 C 30.235 11.353,30.409 11.167,30.288 11.167 C 30.263 11.167,29.644 11.785,28.913 12.542 M70.353 16.708 C 70.368 17.004,70.388 17.020,70.450 16.783 C 70.516 16.528,70.570 16.515,70.806 16.699 C 71.054 16.894,71.059 16.886,70.855 16.625 C 70.540 16.224,70.330 16.259,70.353 16.708 M2.883 38.500 C 2.883 39.004,2.915 39.210,2.953 38.958 C 2.991 38.706,2.991 38.294,2.953 38.042 C 2.915 37.790,2.883 37.996,2.883 38.500 M79.550 38.500 C 79.550 39.004,79.581 39.210,79.619 38.958 C 79.658 38.706,79.658 38.294,79.619 38.042 C 79.581 37.790,79.550 37.996,79.550 38.500 M8.388 43.583 C 8.389 44.225,8.419 44.467,8.455 44.121 C 8.491 43.775,8.490 43.250,8.454 42.955 C 8.417 42.659,8.387 42.942,8.388 43.583 M76.053 43.667 C 76.053 44.262,76.084 44.506,76.121 44.208 C 76.158 43.910,76.158 43.423,76.121 43.125 C 76.084 42.827,76.053 43.071,76.053 43.667 M2.883 43.833 C 2.883 44.337,2.915 44.544,2.953 44.292 C 2.991 44.040,2.991 43.627,2.953 43.375 C 2.915 43.123,2.883 43.329,2.883 43.833 M79.550 43.833 C 79.550 44.337,79.581 44.544,79.619 44.292 C 79.658 44.040,79.658 43.627,79.619 43.375 C 79.581 43.123,79.550 43.329,79.550 43.833 M93.000 62.167 L 93.000 79.667 97.083 79.667 L 101.167 79.667 101.167 62.167 L 101.167 44.667 97.083 44.667 L 93.000 44.667 93.000 62.167 M103.833 48.250 L 103.833 51.833 108.500 51.833 L 113.167 51.833 113.167 65.750 L 113.167 79.667 117.250 79.667 L 121.333 79.667 121.333 65.753 L 121.333 51.839 126.042 51.794 L 130.750 51.750 130.795 48.208 L 130.840 44.667 117.337 44.667 L 103.833 44.667 103.833 48.250 M139.122 50.389 C 138.138 53.539,137.333 56.203,137.333 56.309 C 137.333 56.514,136.866 58.037,133.769 67.937 C 132.704 71.339,131.833 74.229,131.833 74.359 C 131.833 74.489,131.497 75.642,131.087 76.922 C 130.676 78.203,130.339 79.345,130.337 79.461 C 130.334 79.627,131.229 79.663,134.534 79.628 L 138.734 79.583 139.683 76.250 L 140.632 72.917 146.337 72.917 L 152.042 72.917 152.936 76.000 C 153.428 77.696,153.831 79.215,153.832 79.375 C 153.833 79.645,154.147 79.667,158.083 79.667 C 161.062 79.667,162.333 79.612,162.333 79.483 C 162.333 79.383,161.763 77.489,161.066 75.275 C 159.830 71.351,159.334 69.711,158.423 66.531 C 158.178 65.678,156.999 61.890,155.802 58.115 C 154.605 54.339,153.564 50.950,153.490 50.583 C 153.416 50.217,152.990 48.754,152.545 47.333 L 151.735 44.750 146.323 44.706 L 140.911 44.662 139.122 50.389 M164.667 62.167 L 164.667 79.667 175.670 79.667 L 186.673 79.667 186.628 76.042 L 186.583 72.417 179.708 72.373 L 172.833 72.330 172.833 58.498 L 172.833 44.667 168.750 44.667 L 164.667 44.667 164.667 62.167 M189.833 62.167 L 189.833 79.667 193.833 79.667 L 197.833 79.667 197.833 62.167 L 197.833 44.667 193.833 44.667 L 189.833 44.667 189.833 62.167 M210.348 47.292 C 209.891 48.735,209.291 50.704,209.013 51.667 C 208.053 54.998,207.364 57.270,205.942 61.800 C 205.157 64.303,204.167 67.528,203.744 68.967 C 202.738 72.388,201.404 76.769,200.901 78.311 C 200.680 78.986,200.500 79.567,200.500 79.602 C 200.500 79.638,202.400 79.667,204.723 79.667 L 208.946 79.667 209.632 77.292 C 210.010 75.985,210.447 74.448,210.604 73.875 L 210.888 72.833 216.589 72.833 L 222.289 72.833 223.260 76.250 L 224.231 79.667 228.468 79.667 C 232.424 79.667,232.700 79.647,232.623 79.375 C 232.578 79.215,232.078 77.621,231.512 75.833 C 230.946 74.046,230.303 71.908,230.082 71.083 C 229.860 70.258,228.768 66.696,227.654 63.167 C 225.698 56.970,225.320 55.737,224.057 51.417 C 223.735 50.317,223.132 48.348,222.716 47.042 L 221.961 44.667 216.569 44.667 L 211.177 44.667 210.348 47.292 M218.705 60.000 C 219.116 61.512,219.643 63.519,219.876 64.458 L 220.299 66.167 216.566 66.167 C 214.513 66.167,212.833 66.124,212.833 66.072 C 212.833 65.843,213.807 62.184,215.128 57.447 L 216.561 52.311 217.259 54.780 C 217.643 56.139,218.293 58.487,218.705 60.000 M147.380 56.167 C 147.890 58.046,148.661 60.933,149.093 62.583 C 149.525 64.233,149.915 65.715,149.959 65.875 C 150.033 66.147,149.779 66.167,146.269 66.167 C 143.365 66.167,142.500 66.119,142.500 65.958 C 142.499 65.517,146.255 52.522,146.351 52.633 C 146.407 52.697,146.870 54.288,147.380 56.167 M12.872 65.833 C 12.872 66.154,12.906 66.285,12.948 66.125 C 12.990 65.965,12.990 65.702,12.948 65.542 C 12.906 65.381,12.872 65.512,12.872 65.833 M47.576 69.044 C 47.531 69.159,47.516 71.465,47.542 74.169 L 47.589 79.083 47.628 74.054 C 47.664 69.423,47.690 69.018,47.958 68.948 C 48.232 68.877,48.231 68.871,47.953 68.853 C 47.790 68.842,47.620 68.928,47.576 69.044 M34.907 74.000 C 34.907 76.796,34.930 77.940,34.958 76.542 C 34.986 75.144,34.986 72.856,34.958 71.458 C 34.930 70.060,34.907 71.204,34.907 74.000 M51.667 69.972 C 51.804 70.057,52.104 70.176,52.333 70.238 C 52.623 70.315,52.674 70.302,52.500 70.195 C 52.362 70.110,52.063 69.990,51.833 69.929 C 51.544 69.851,51.493 69.865,51.667 69.972 M22.667 74.743 C 22.667 74.789,22.967 74.980,23.333 75.167 C 23.700 75.354,24.000 75.469,24.000 75.423 C 24.000 75.378,23.700 75.187,23.333 75.000 C 22.967 74.813,22.667 74.697,22.667 74.743 M59.125 75.011 C 58.781 75.193,58.500 75.379,58.500 75.424 C 58.500 75.470,58.800 75.354,59.167 75.167 C 59.533 74.980,59.833 74.791,59.833 74.747 C 59.833 74.638,59.832 74.638,59.125 75.011 M57.667 75.750 C 57.438 75.881,57.325 75.988,57.417 75.988 C 57.508 75.988,57.771 75.881,58.000 75.750 C 58.229 75.619,58.342 75.512,58.250 75.512 C 58.158 75.512,57.896 75.619,57.667 75.750 " stroke="none" fill="#888888" fill-rule="evenodd"></path></g></svg>